#!OML:ASF H:\BabyWalks\Project 1\Capture day 1\Session 1\baby.ASF
:FULLY-SPECIFIED
:DEGREES
473
root -7.1517 12.719 -0.457956 -126.108 84.3097 -180.942
lowerback 41.4124 4.69735 -1.22789
upperback 11.9932 6.87118 3.24675
thorax -6.82743 3.49795 1.28297
lowerneck -5.07833 -3.3976 7.30167
upperneck -23.4145 -5.34972 -6.6888
head -6.66288 -2.32367 -3.23916
rclavicle -3.81667e-014 2.98177e-014
rhumerus 59.3534 -15.4954 -44.4004
rradius 27.0155
rwrist 29.3575
rhand -42.6568 -21.1564
rfingers 7.12502
rthumb -15.5278 -50.5529
lclavicle -3.81667e-014 2.98177e-014
lhumerus 62.832 -17.1985 50.9366
lradius 40.4282
lwrist -23.7742
lhand -17.7201 6.18466
lfingers 7.12502
lthumb 8.54044 35.9919
rfemur -104.055 -19.4077 50.056
rtibia 111.143
rfoot -35.9977 16.2912
rtoes -15.1163
lfemur -116.728 27.8293 -44.7701
ltibia 105.912
lfoot -32.1193 -37.0465
ltoes 5.02175
474
root -7.05798 12.6614 -0.411623 -130.212 84.0319 -184.652
lowerback 41.6396 4.7611 -1.10908
upperback 12.0032 7.02751 3.406
thorax -6.90085 3.57089 1.3146
lowerneck -5.16555 -3.53679 7.4715
upperneck -23.5324 -5.56379 -6.75386
head -6.7105 -2.43452 -3.2824
rclavicle -1.11319e-014 5.1684e-014
rhumerus 59.0392 -15.7211 -44.7447
rradius 26.2766
rwrist 30.9012
rhand -43.5653 -22.5613
rfingers 7.12502
rthumb -16.4027 -51.8878
lclavicle -1.11319e-014 5.1684e-014
lhumerus 62.6148 -18.0704 50.7596
lradius 40.8313
lwrist -23.6014
lhand -18.0148 6.24745
lfingers 7.12502
lthumb 8.25608 36.0661
rfemur -103.49 -19.8748 49.4592
rtibia 112.032
rfoot -36.3416 15.9596
rtoes -16.5532
lfemur -116.218 28.3135 -44.6325
ltibia 106.432
lfoot -32.0507 -37.8037
ltoes 4.97075
475
root -6.95341 12.6123 -0.360544 -134.62 83.7124 -188.386
lowerback 42.2771 4.79634 -1.00309
upperback 12.0055 7.1534 3.54695
thorax -7.09732 3.62981 1.32362
lowerneck -5.27554 -3.66629 7.59676
upperneck -23.6277 -5.75081 -6.74646
head -6.74259 -2.53469 -3.2954
rclavicle -8.42847e-014 -3.02153e-014
rhumerus 58.5834 -15.8815 -45.1226
rradius 25.7506
rwrist 32.0914
rhand -44.7649 -24.2727
rfingers 7.12502
rthumb -17.5574 -53.4999
lclavicle -8.42847e-014 -3.02153e-014
lhumerus 62.3731 -18.9164 50.5397
lradius 41.2315
lwrist -23.4701
lhand -18.3412 6.30052
lfingers 7.12502
lthumb 7.941 36.1314
rfemur -102.543 -20.5967 48.8111
rtibia 112.862
rfoot -36.744 15.6853
rtoes -17.9235
lfemur -115.273 28.9894 -44.3601
ltibia 106.877
lfoot -32.0578 -38.6668
ltoes 4.95278
476
root -6.83889 12.571 -0.304663 -139.184 83.3414 -192.038
lowerback 43.2699 4.78489 -0.902114
upperback 11.9965 7.22969 3.65358
thorax -7.39467 3.66651 1.3011
lowerneck -5.41203 -3.77695 7.68475
upperneck -23.6969 -5.89605 -6.66047
head -6.75589 -2.61821 -3.27819
rclavicle -8.26944e-014 -2.66371e-014
rhumerus 58.0163 -15.9889 -45.6263
rradius 25.4844
rwrist 32.8324
rhand -46.2125 -26.1272
rfingers 7.12502
rthumb -18.95 -55.2241
lclavicle -8.26944e-014 -2.66371e-014
lhumerus 62.0921 -19.717 50.2492
lradius 41.6318
lwrist -23.3742
lhand -18.7078 6.34709
lfingers 7.12502
lthumb 7.58718 36.191
rfemur -101.212 -21.49 48.0519
rtibia 113.625
rfoot -37.2084 15.4198
rtoes -19.2213
lfemur -113.935 29.8323 -43.9472
ltibia 107.239
lfoot -32.1097 -39.6475
ltoes 4.98892
477
root -6.71567 12.5336 -0.244886 -143.819 82.9127 -195.56
lowerback 44.562 4.71091 -0.808817
upperback 11.9706 7.23627 3.71406
thorax -7.77222 3.6726 1.24962
lowerneck -5.57104 -3.85906 7.74182
upperneck -23.7359 -5.985 -6.4959
head -6.74848 -2.6786 -3.23255
rclavicle 3.33958e-014 -1.19271e-015
rhumerus 57.3623 -16.0368 -46.2809
rradius 25.5123
rwrist 33.0827
rhand -47.7745 -27.8925
rfingers 7.12502
rthumb -20.4517 -56.8354
lclavicle 3.33958e-014 -1.19271e-015
lhumerus 61.7502 -20.4521 49.8769
lradius 42.0382
lwrist -23.304
lhand -19.0907 6.39584
lfingers 7.12502
lthumb 7.21761 36.2528
rfemur -99.546 -22.5429 47.1938
rtibia 114.344
rfoot -37.7451 15.1685
rtoes -20.4309
lfemur -112.258 30.8088 -43.39
ltibia 107.539
lfoot -32.1966 -40.749
ltoes 5.09002
478
root -6.58635 12.4972 -0.182135 -148.29 82.4263 -198.8
lowerback 46.0296 4.57296 -0.731371
upperback 11.9228 7.16684 3.73079
thorax -8.19487 3.64595 1.18764
lowerneck -5.73253 -3.90668 7.77972
upperneck -23.7431 -6.0129 -6.27629
head -6.72357 -2.71258 -3.16819
rclavicle -4.6118e-014 -5.32743e-014
rhumerus 56.6298 -15.9954 -47.0515
rradius 25.8452
rwrist 32.865
rhand -49.3159 -29.3252
rfingers 7.12502
rthumb -21.9323 -58.1019
lclavicle -4.6118e-014 -5.32743e-014
lhumerus 61.3228 -21.1162 49.4318
lradius 42.4553
lwrist -23.2342
lhand -19.4703 6.45993
lfingers 7.12502
lthumb 6.85115 36.3291
rfemur -97.6521 -23.7199 46.293
rtibia 115.032
rfoot -38.3374 14.9512
rtoes -21.5751
lfemur -110.35 31.8645 -42.6986
ltibia 107.792
lfoot -32.2953 -41.9565
ltoes 5.25477
479
root -6.45581 12.4554 -0.118393 -152.358 81.8946 -201.654
lowerback 47.4697 4.37179 -0.674353
upperback 11.8541 7.01479 3.70346
thorax -8.60741 3.58493 1.1317
lowerneck -5.87887 -3.91699 7.79427
upperneck -23.7129 -5.97755 -6.01414
head -6.68231 -2.71767 -3.08826
rclavicle -6.36111e-015 2.70347e-014
rhumerus 55.8117 -15.8054 -47.8257
rradius 26.4652
rwrist 32.2109
rhand -50.7164 -30.2861
rfingers 7.12502
rthumb -23.2766 -58.8992
lclavicle -6.36111e-015 2.70347e-014
lhumerus 60.7907 -21.7083 48.9269
lradius 42.8853
lwrist -23.1535
lhand -19.8169 6.55816
lfingers 7.12502
lthumb 6.51655 36.4379
rfemur -95.7357 -24.92 45.4025
rtibia 115.726
rfoot -38.9408 14.7329
rtoes -22.7435
lfemur -108.424 32.9098 -41.9282
ltibia 108.036
lfoot -32.3615 -43.2333
ltoes 5.4809
480
root -6.3285 12.405 -0.0551175 -155.833 81.3374 -204.055
lowerback 49.6816 4.12437 -0.58933
upperback 10.7255 6.78525 3.5198
thorax -8.91228 3.48283 1.07322
lowerneck -5.98001 -3.88159 7.81461
upperneck -23.644 -5.87395 -5.74944
head -6.63094 -2.69086 -3.01045
rclavicle 5.08889e-014 2.74323e-014
rhumerus 54.9242 -15.404 -48.5198
rradius 27.3036
rwrist 31.2474
rhand -51.9131 -30.7523
rfingers 7.12502
rthumb -24.4242 -59.2154
lclavicle 5.08889e-014 2.74323e-014
lhumerus 60.1194 -22.2309 48.384
lradius 43.3342
lwrist -23.057
lhand -20.102 6.70735
lfingers 7.12502
lthumb 6.24138 36.5954
rfemur -93.9853 -26.0423 44.5794
rtibia 116.45
rfoot -39.5039 14.4816
rtoes -23.9123
lfemur -106.673 33.8692 -41.1459
ltibia 108.296
lfoot -32.3519 -44.5353
ltoes 5.7577
481
root -6.20723 12.3448 0.00651052 -158.652 80.7745 -206.002
lowerback 50.6213 3.84476 -0.611869
upperback 10.5775 6.48852 3.44136
thorax -9.18716 3.36321 1.10025
lowerneck -6.02196 -3.81005 7.83734
upperneck -23.5357 -5.72076 -5.50741
head -6.57352 -2.63908 -2.94126
rclavicle -3.49861e-014 -4.65156e-014
rhumerus 53.9895 -14.7762 -49.0772
rradius 28.2508
rwrist 30.1541
rhand -52.8598 -30.8629
rfingers 7.12502
rthumb -25.3315 -59.2006
lclavicle -3.49861e-014 -4.65156e-014
lhumerus 59.312 -22.7131 47.8422
lradius 43.7997
lwrist -22.9381
lhand -20.3138 6.91399
lfingers 7.12502
lthumb 6.03686 36.808
rfemur -92.4992 -27.0114 43.8447
rtibia 117.226
rfoot -40.0051 14.1846
rtoes -25.0858
lfemur -105.212 34.7088 -40.4033
ltibia 108.596
lfoot -32.2668 -45.8262
ltoes 6.06488
482
root -6.0925 12.276 0.0657905 -160.874 80.2118 -207.548
lowerback 51.2131 3.54417 -0.668238
upperback 10.4462 6.14113 3.36294
thorax -9.39231 3.2229 1.17544
lowerneck -5.97394 -3.70577 7.8739
upperneck -23.4073 -5.52435 -5.30022
head -6.52271 -2.56508 -2.88582
rclavicle 5.08889e-014 5.84427e-014
rhumerus 53.0488 -13.9193 -49.4793
rradius 29.1895
rwrist 29.0684
rhand -53.5554 -30.8591
rfingers 7.12502
rthumb -25.9977 -59.1007
lclavicle 5.08889e-014 5.84427e-014
lhumerus 58.3739 -23.1754 47.3081
lradius 44.2834
lwrist -22.7777
lhand -20.425 7.18556
lfingers 7.12502
lthumb 5.92952 37.0826
rfemur -91.2714 -27.8137 43.1896
rtibia 118.05
rfoot -40.4163 13.8566
rtoes -26.2142
lfemur -104.035 35.4274 -39.7059
ltibia 108.936
lfoot -32.1098 -47.0855
ltoes 6.39124
483
root -5.98816 12.1942 0.121451 -162.451 79.6798 -208.727
lowerback 51.3116 3.24747 -0.760942
upperback 10.3573 5.76472 3.29017
thorax -9.48811 3.07019 1.29811
lowerneck -5.85532 -3.57813 7.92364
upperneck -23.2636 -5.29835 -5.12487
head -6.4778 -2.47567 -2.84292
rclavicle 7.95139e-014 2.94201e-014
rhumerus 52.1518 -12.8772 -49.7623
rradius 30.0047
rwrist 28.0992
rhand -54.1243 -31.0003
rfingers 7.12502
rthumb -26.5423 -59.1608
lclavicle 7.95139e-014 2.94201e-014
lhumerus 57.3349 -23.6383 46.7834
lradius 44.7809
lwrist -22.5818
lhand -20.4383 7.52614
lfingers 7.12502
lthumb 5.91663 37.4235
rfemur -90.5133 -28.4131 42.7106
rtibia 118.953
rfoot -40.6567 13.5146
rtoes -27.2407
lfemur -103.329 35.9949 -39.1424
ltibia 109.345
lfoot -31.8422 -48.2716
ltoes 6.71131
484
root -5.88651 12.1128 0.175941 -163.651 79.1481 -209.605
lowerback 51.2407 2.95016 -0.853289
upperback 10.2789 5.3837 3.2338
thorax -9.55231 2.91456 1.44405
lowerneck -5.68335 -3.44348 7.98757
upperneck -23.1161 -5.06543 -4.97411
head -6.44122 -2.38237 -2.80982
rclavicle -4.77083e-014 -3.49861e-014
rhumerus 51.3253 -11.7392 -50.0021
rradius 30.6231
rwrist 27.3503
rhand -54.627 -31.3678
rfingers 7.12502
rthumb -27.0234 -59.4546
lclavicle -4.77083e-014 -3.49861e-014
lhumerus 56.2496 -24.1367 46.2589
lradius 45.2778
lwrist -22.3563
lhand -20.3956 7.92064
lfingers 7.12502
lthumb 5.95792 37.8169
rfemur -89.771 -28.7974 42.173
rtibia 119.85
rfoot -40.8225 13.0914
rtoes -28.1932
lfemur -102.709 36.5152 -38.5691
ltibia 109.745
lfoot -31.5556 -49.4319
ltoes 7.02545
